<?xml version="1.0" encoding="UTF-8"?>
<!DOCTYPE svg PUBLIC "-//W3C//DTD SVG 1.1//EN" "http://www.w3.org/Graphics/SVG/1.1/DTD/svg11.dtd">
<!-- Creator: CorelDRAW 2018 (64-Bit) -->
<svg xmlns="http://www.w3.org/2000/svg" xml:space="preserve" width="290mm" height="290mm" version="1.1" style="shape-rendering:geometricPrecision; text-rendering:geometricPrecision; image-rendering:optimizeQuality; fill-rule:evenodd; clip-rule:evenodd"
viewBox="0 0 29000 29000"
 xmlns:xlink="http://www.w3.org/1999/xlink">
 <defs>
  <style type="text/css">
   <![CDATA[
    .str1 {stroke:#083344;stroke-width:500;stroke-miterlimit:22.9256}
    .str0 {stroke:#00A0E3;stroke-width:20;stroke-miterlimit:22.9256}
    .fil2 {fill:none}
    .fil0 {fill:#51BFCF}
    .fil1 {fill:#083344}
   ]]>
  </style>
 </defs>
 <g id="Слой_x0020_1">
  <metadata id="CorelCorpID_0Corel-Layer"/>
  <rect class="fil0 str0" x="0" y="0" width="29000" height="29000" rx="4715.04" ry="6000"/>
  <g id="_2395850534080">
   <path class="fil1" d="M14518.52 17813.79c149.88,-342.31 278.04,-1094.6 369.84,-1526.23 328.04,-1542.42 713.09,-3137.39 1016.5,-4648.06l413.3 -1007.75c157.17,-225.34 435.64,-373.98 707.49,-472.33 196.63,-71.14 73.19,34.77 138.36,-104.24 46.87,-99.98 99.29,-629.87 125.39,-783.72 44.58,-262.92 188.39,-348.3 333.97,-551.28l242.31 -300.69c305.57,-362.19 525.35,-686.51 856.3,-1039.9 105.88,-113.05 118.05,-178.76 254.29,-230.36 72.66,357.39 220.39,756.81 339.14,1115.58 128.6,388.5 292.99,711.42 410.19,1050.24 467.74,1352.29 -390.74,1399.3 -660.04,2028.18 150.07,165.69 391.52,326.77 525.12,459.31 464.91,461.24 866.9,1064.62 1200.26,1731.3 256.54,513.07 414.75,884.75 599.12,1365.43 150.78,393.11 477.46,1041.69 564.08,1443.97 -410.72,180.87 -856.78,629.68 -1277.31,813.42 111.36,284.13 777.43,821.41 886.3,1130.66 -412.98,160.81 -2411.69,1394.39 -2673.13,1451.4l-580.78 -1352.19c-196.76,333.96 -723.98,2397.36 -893.57,2937.69 -159.26,507.39 -777.3,2567.03 -839.98,2969.48l821.06 -416.24c13.39,-8.13 62.21,-41.31 62.27,-41.36 331.39,-211.12 734.13,-395.83 973.02,-716.31l494.58 -757.49c203.92,-332.79 379.47,-786.73 621.91,-1071.76 37.01,-43.52 26.03,-36.28 67.44,-70.55l82.34 -53.46c6.7,-3.98 15.57,-8.41 22.34,-12.38 6.85,-4.01 15.69,-8.57 22.52,-12.63l3227.44 -1786.8c415.37,-236.53 1236.08,-599.46 1451.04,-865.03 -87,-463.74 -1184.65,-2994.67 -1374.33,-3411.56 -251.93,-553.72 -485.35,-1113.74 -716.07,-1661.15l-345.38 -838.63c-115.34,-258.69 -302.97,-576.51 -265.69,-887.36 44.92,-374.48 178.23,-642.23 54.91,-1005.58 -278.22,-819.78 -682.49,-1755.61 -996.48,-2564.6 -117.66,-303.14 -209.34,-552.83 -331.88,-851.26 -113.09,-275.4 -227.77,-568.66 -333.7,-851.83 -162.71,-434.95 -436.56,-1257.67 -685.27,-1675.11 -107.12,75.79 -417.74,449.09 -534.4,570.27 -108.7,112.92 -183.84,198.83 -280.55,295.52 -282.46,282.42 -514.19,594.88 -789.68,873.77 -1419.87,1437.38 -1368.38,2293.88 -3277.55,2201.71 -811.06,-39.14 -1293.22,6.11 -1733.85,-473.8 -546.09,-594.75 -1079,-1149.45 -1568.28,-1754.54 -84.2,-104.14 -176.84,-198.98 -256.3,-303.49l-313.79 -352.61c-4.09,-5.46 -9.57,-13.63 -13.69,-19.11l-925.7 -1119.14c-133.01,121.42 -1284.08,3091.37 -1387.67,3390.05 -299.3,862.99 -712.28,1722.2 -989,2606.3 -124.78,398.67 120.77,801.15 46.08,1024.29 -90.37,269.99 -252.21,609.11 -363.71,859.42 -625.67,1404.56 -1152.33,2781.58 -1765.87,4199.94 -163.9,378.93 -613.34,1351.05 -695.42,1680.7 176.66,161.95 346.29,240.49 540.86,344.11l1096.18 634.49c188.14,100.5 343.56,202.21 539.35,310.07l1103.71 620.57c195.06,109.27 377.05,206.29 569.54,310.9l558.61 300.6c441.28,298.63 960.23,1346.6 1388.24,2058.15 73.9,122.85 127.39,146.03 230.1,221.79 413.18,304.76 866.94,550.05 1312.88,810.58 190.38,111.24 352.07,227.74 522.94,305.65 -9.86,-257.66 -315.21,-1210.34 -405.32,-1536.7 -95.27,-345.09 -1155.94,-4338.19 -1287.01,-4552.08l-641.65 1483.49c-151.48,-26.97 -1115,-594.33 -1337.15,-716.47 -237.41,-130.52 -1224.56,-650.47 -1313.56,-764.62 51.35,-106.76 150.67,-208.04 226.75,-283.11 163.69,-161.5 280.01,-371.55 447.48,-540.23l121.67 -117.29c31.38,-34.62 33.09,-35.21 57.39,-76.14 44.66,-75.21 0.51,23.25 29.27,-67.85 -83.8,-86.48 -650.16,-389.91 -807.97,-465.77 -419.1,-201.41 -611.17,-190.36 -443.64,-653.77 301.56,-834.16 731.59,-1619.99 1120.97,-2409.03 205.92,-417.3 482.42,-792.12 734.69,-1159.28l399.82 -551.02c180.68,-221.49 471.8,-420.96 618.77,-624.84 -265.04,-326.22 -443.48,-491.86 -686.73,-830.21 -236.59,-329.1 -196.08,-375.96 -68.07,-743.13 3.08,-8.82 5.98,-17.68 8.94,-26.61 2.94,-8.87 5.62,-17.67 8.44,-26.58 29.67,-93.65 55.8,-175.64 94.23,-282.67 135.73,-377.97 260.28,-738.24 401.79,-1124.7 139.05,-379.78 287.1,-718.62 414.51,-1073.15 81.25,50.88 25.09,0.85 94.8,89.06 461.23,583.73 738.14,778.94 1013.73,1118.98 413.61,510.33 632.47,730.83 571.51,1644.91 107.75,75.47 338.54,140.07 463.26,211.35 518.49,296.34 619.55,503.72 784.32,1167.82 260.73,1050.84 1198.83,6048.47 1456.51,6384.63z"/>
   <path class="fil1" d="M10092.72 15260.53c96.63,361.69 233.87,698.1 365.64,1047.94 187.12,496.84 159.25,546.41 663.17,726.58 333.74,119.33 696.25,221.01 1012.5,376.38 731.83,359.54 415.2,285.79 813.16,568.21 -56.77,-404.83 -153.98,-741.88 -247.45,-1134.35 -203.9,-856.15 -26.78,-686.98 -1556.75,-1223.1 -320.41,-112.28 -757.07,-290.92 -1050.27,-361.66z"/>
   <path class="fil1" d="M16358.79 17794.16c531.34,-442.12 926.97,-513.05 1611.53,-762.08 497.65,-181.02 503.7,-270.94 660.18,-730.63 115.49,-339.31 282.83,-704.44 362.23,-1040.97 -291.07,61.82 -1649.41,587.57 -2058.12,732.33 -222.75,78.89 -346.12,80.31 -413.38,302.13l-380.72 1677.61 218.28 -178.39z"/>
   <path class="fil1" d="M13018.66 22352.22c-22.95,538.22 203.67,1010.07 426,1307.49 357.15,477.8 906.34,807.89 1536.93,514.45 419.51,-195.22 742.37,-642.17 898.67,-1098.27 80.19,-233.97 116.44,-459.52 114.27,-720.26 -521.62,284.93 -597.47,907.94 -1480.74,919.27 -879.18,11.27 -1050.75,-719.5 -1495.13,-922.68z"/>
  </g>
  <circle class="fil2 str1" cx="14500" cy="14500" r="12250"/>
 </g>
</svg>
